<svg width="731" height="164" viewBox="0 0 731 164" fill="none" xmlns="http://www.w3.org/2000/svg">
<path d="M242.392 93.5V14.299C242.392 9.16328 238.228 5 233.093 5H177.299C172.163 5 168 9.16328 168 14.2989V146.344C168 151.48 172.163 155.643 177.299 155.643H233.093C238.228 155.643 242.392 151.48 242.392 146.344V143.5" stroke="#5686E1" stroke-width="10" stroke-linecap="round"/>
<path d="M253.845 151.383C253.845 151.383 235.647 139.785 231.314 134.948C226.981 130.11 205.117 92.1901 202.717 82.9006C200.317 73.6111 202.184 73.0678 204.45 71.0303C206.717 68.9928 211.649 69.8681 213.983 71.0303C216.316 72.1924 233.38 89.647 235.647 91.1186C236.874 91.9156 238.806 92.9207 240.319 93.6747C241.367 94.1969 242.579 93.4282 242.579 92.2573V57.0372C242.579 55.8844 243.762 55.11 244.819 55.5707L267.182 65.3216C267.523 65.4703 267.802 65.7331 267.966 66.0669C268.663 67.4821 270.58 71.4758 271.176 73.7696C271.909 76.5919 285.908 123.99 285.908 123.99" stroke="#5686E1" stroke-width="10" stroke-linecap="round"/>
<path d="M338 159V126M393 159V126" stroke="#5686E1" stroke-width="10" stroke-linecap="round"/>
<rect x="320" y="40" width="91" height="85" rx="16" stroke="#5686E1" stroke-width="10" stroke-linecap="round"/>
<path d="M338 39V6M394 39V6" stroke="#5686E1" stroke-width="10" stroke-linecap="round"/>
<path d="M392 60.5L366.5 87.5L337 83" stroke="#5686E1" stroke-width="10" stroke-linecap="round"/>
<path d="M493.5 141C475.647 133.075 465.356 114.567 460.2 92.5" stroke="#5686E1" stroke-width="10" stroke-linecap="round"/>
<path d="M573.309 51C565.333 24.1707 543.241 6 516.5 6C489.759 6 468.612 24.1707 461.026 51" stroke="#5686E1" stroke-width="10" stroke-linecap="round"/>
<path d="M574.148 92C568.685 113.666 557.31 132.03 540.5 140.5" stroke="#5686E1" stroke-width="10" stroke-linecap="round"/>
<path d="M494 141V156M540 141V156" stroke="#5686E1" stroke-width="10" stroke-linecap="round"/>
<rect x="450" y="51" width="135" height="41" rx="10" stroke="#5686E1" stroke-width="10" stroke-linecap="round"/>
</svg>
